Demolition.Man.1993.BluRay.720p.x264.DTS.mkv-anoxmous

Format                           : Matroska
File size                        : 6.55 GiB
Duration                         : 1h 55mn
Overall bit rate                 : 8 154 Kbps
Encoded date                     : UTC 2011-08-14 05:52:46
Writing application              : mkvmerge v4.4.0 ('Die Wiederkehr') built on Oct 31 2010 21:52:48
Writing library                  : libebml v1.0.0 + libmatroska v1.0.0

Video
ID                               : 1
Format                           : AVC
Format/Info                      : Advanced Video Codec
Format profile                   : High@L4.1
Format settings, CABAC           : Yes
Format settings, ReFrames        : 5 frames
Muxing mode                      : Header stripping
Codec ID                         : V_MPEG4/ISO/AVC
Duration                         : 1h 55mn
Bit rate                         : 6 648 Kbps
Width                            : 1 280 pixels
Height                           : 528 pixels
Display aspect ratio             : 2.40:1
Frame rate                       : 23.976 fps
Color space                      : YUV
Chroma subsampling               : 4:2:0
Bit depth                        : 8 bits
Scan type                        : Progressive
Bits/(Pixel*Frame)               : 0.410
Stream size                      : 5.21 GiB (79%)
Writing library                  : x264 core 112 r1867 22bfd31
Encoding settings                : cabac=1 / ref=5 / deblock=1:-1:-1 / analyse=0x3:0x113 / me=umh / subme=7 / psy=1 / psy_rd=1.00:0.00 / mixed_ref=1 / me_range=16 / chroma_me=1 / trellis=1 / 8x8dct=1 / cqm=0 / deadzone=21,11 / fast_pskip=1 / chroma_qp_offset=-2 / threads=12 / sliced_threads=0 / nr=0 / decimate=1 / interlaced=0 / constrained_intra=0 / bframes=3 / b_pyramid=2 / b_adapt=2 / b_bias=0 / direct=3 / weightb=1 / open_gop=0 / weightp=2 / keyint=250 / keyint_min=23 / scenecut=40 / intra_refresh=0 / rc_lookahead=40 / rc=2pass / mbtree=1 / bitrate=6648 / ratetol=1.0 / qcomp=0.60 / qpmin=0 / qpmax=51 / qpstep=4 / cplxblur=20.0 / qblur=0.5 / vbv_maxrate=50000 / vbv_bufsize=50000 / nal_hrd=none / ip_ratio=1.40 / aq=1:1.00

Audio
ID                               : 2
Format                           : DTS
Format/Info                      : Digital Theater Systems
Muxing mode                      : Header stripping
Codec ID                         : A_DTS
Duration                         : 1h 55mn
Bit rate mode                    : Constant
Bit rate                         : 1 510 Kbps
Channel(s)                       : 6 channels
Channel positions                : Front: L C R, Side: L R, LFE
Sampling rate                    : 48.0 KHz
Bit depth                        : 24 bits
Compression mode                 : Lossy
Stream size                      : 1.21 GiB (19%)
Language                         : English

Text #1
ID                               : 3
Format                           : UTF-8
Codec ID                         : S_TEXT/UTF8
Codec ID/Info                    : UTF-8 Plain Text
Language                         : English

Text #2
ID                               : 4
Format                           : UTF-8
Codec ID                         : S_TEXT/UTF8
Codec ID/Info                    : UTF-8 Plain Text
Language                         : Swedish

